<svg id="Слой_1" xmlns="http://www.w3.org/2000/svg" viewBox="0 0 24.3 24.3"><style>.st0{fill:#ff6700}</style><path class="st0" d="M20.4 24.3c-2.1 0-3.9-1.7-3.9-3.9v-.3l-7.7-7.7c-.5-.5-.6-1.2-.4-1.8l.1-.4-3.9 1.3c-.1 0-.3.1-.4.1-.5 0-1-.2-1.2-.5L.5 8.6C.1 8.2-.1 7.4.1 6.9l.5-1.5c.1-.2.2-.3.3-.3.1 0 .2.1.3.2l1.6 1.6c.3.3.7.5 1.2.5.4 0 .9-.2 1.2-.5l1.7-1.7c.6-.6.7-1.7 0-2.4L5.3 1.2c-.1-.1-.2-.3-.2-.4 0-.1.1-.2.3-.3L6.9 0h.5c.5 0 1 .2 1.2.5L11.1 3c.4.4.6 1.2.4 1.7l-1.3 3.9.4-.1c.2-.1.4-.1.6-.1.5 0 .9.2 1.2.5l7.7 7.7h.3c2.1 0 3.9 1.7 3.9 3.9 0 2-1.8 3.8-3.9 3.8zm0-6.2c-.6 0-1.2.2-1.6.7-.4.4-.7 1-.7 1.6 0 1.3 1 2.3 2.3 2.3 1.3 0 2.3-1 2.3-2.3s-1-2.3-2.3-2.3z"/></svg>