<svg id="Слой_1" xmlns="http://www.w3.org/2000/svg" viewBox="-326.1 393.8 24.3 24.3"><style>.st0{fill:#ff6700}</style><path class="st0" d="M-305.7 418.1c-2.1 0-3.9-1.7-3.9-3.9v-.3l-7.7-7.7c-.5-.5-.6-1.2-.4-1.8l.1-.4-3.9 1.3c-.1 0-.3.1-.4.1-.5 0-1-.2-1.2-.5l-2.5-2.5c-.4-.4-.6-1.2-.4-1.7l.5-1.5c.1-.2.2-.3.3-.3.1 0 .2.1.3.2l1.6 1.6c.3.3.7.5 1.2.5.4 0 .9-.2 1.2-.5l1.7-1.7c.6-.6.7-1.7 0-2.4l-1.6-1.6c-.1-.1-.2-.3-.2-.4 0-.1.1-.2.3-.3l1.5-.5c.1 0 .3-.1.4-.1.5 0 1 .2 1.2.5l2.5 2.5c.4.4.6 1.2.4 1.7l-1.3 3.9.4-.1c.2-.1.4-.1.6-.1.5 0 .9.2 1.2.5l7.7 7.7h.3c2.1 0 3.9 1.7 3.9 3.9s-1.7 3.9-3.8 3.9zm0-6.2c-.6 0-1.2.2-1.6.7-.4.4-.7 1-.7 1.6 0 1.3 1 2.3 2.3 2.3 1.3 0 2.3-1 2.3-2.3 0-1.3-1.1-2.3-2.3-2.3z"/></svg>