<svg id="Слой_1" xmlns="http://www.w3.org/2000/svg" viewBox="0 0 40 31.2"><style>.st0{fill:#ff6700}.st1{fill:#fff}</style><path class="st0" d="M39.2 0H.8C.4 0 0 .4 0 .8v21.9c0 .5.4.8.8.8h17.8v6.3h-4.5v1.5h11.6v-1.5h-4.5v-6.3H39c.5 0 .8-.4.8-.8V.8c.2-.4-.2-.8-.6-.8z"/><path class="st1" d="M.8 21.6V1.9c0-.7.6-1.3 1.3-1.3h35.7c.7 0 1.3.6 1.3 1.3v19.6c0 .7-.6 1.3-1.3 1.3H2.1c-.7.1-1.3-.5-1.3-1.2z"/><path class="st0" d="M9.9 31.2H4.1c-.8 0-1.5-.7-1.5-1.5V18.2c0-.8.7-1.5 1.5-1.5h5.8c.8 0 1.5.7 1.5 1.5v11.6c0 .8-.7 1.4-1.5 1.4z"/><path class="st1" d="M9.5 30.5H4.4c-.9 0-1.6-.7-1.6-1.6V19c0-.9.7-1.6 1.6-1.6h5.1c.9 0 1.6.7 1.6 1.6v9.9c.1.9-.7 1.6-1.6 1.6z"/></svg>