<svg id="Слой_1" xmlns="http://www.w3.org/2000/svg" viewBox="-288 380.5 33.5 33.5"><style>.st0{fill:#ff6700}</style><path class="st0" d="M-263.1 414h-16.3c-4.7 0-8.6-3.8-8.6-8.6v-16.3c0-4.8 3.8-8.6 8.6-8.6h16.3c4.7 0 8.6 3.8 8.6 8.6v16.3c0 4.7-3.9 8.6-8.6 8.6zm-16.3-32.5c-4.2 0-7.6 3.4-7.6 7.6v16.3c0 4.2 3.4 7.6 7.6 7.6h16.3c4.2 0 7.6-3.4 7.6-7.6v-16.3c0-4.2-3.4-7.6-7.6-7.6h-16.3z"/><path class="st0" d="M-267.9 395.3h-2.3v-1.5c0-.6.4-.7.6-.7h1.6v-2.5h-2.2c-2.5 0-3 1.9-3 3v1.7h-1.4v2.6h1.4v7.2h3v-7.2h2l.3-2.6z"/></svg>