<svg id="Слой_1" xmlns="http://www.w3.org/2000/svg" viewBox="0 0 33.5 33.5"><style>.st0{fill:none;stroke:#ff6700;stroke-miterlimit:10}.st1{fill:#ff6700}</style><path class="st0" d="M24.9 33H8.6C4.1 33 .5 29.4.5 24.9V8.6C.5 4.1 4.1.5 8.6.5h16.3C29.4.5 33 4.1 33 8.6v16.3c0 4.4-3.7 8.1-8.1 8.1z"/><path class="st1" d="M21.3 13c0 .5-.4.8-.8.8-.5 0-.8-.4-.8-.8s.4-.8.8-.8.8.3.8.8zm2.7 3.8v3c0 2.3-1.9 4.1-4.1 4.1h-6c-2.3 0-4.1-1.9-4.1-4.1v-6c0-2.3 1.9-4.1 4.1-4.1h6c2.3 0 4.1 1.9 4.1 4.1v3zm-1.4 0v-3c0-1.5-1.3-2.8-2.8-2.8h-6c-1.5 0-2.8 1.3-2.8 2.8v6c0 1.5 1.3 2.8 2.8 2.8h6c1.5 0 2.8-1.3 2.8-2.8v-3zm-2.2 0c0 2.1-1.7 3.7-3.7 3.7S13 18.8 13 16.8s1.7-3.7 3.7-3.7c2.1 0 3.7 1.6 3.7 3.7zm-1.3 0c0-1.3-1.1-2.4-2.4-2.4s-2.4 1.1-2.4 2.4 1.1 2.4 2.4 2.4c1.3-.1 2.4-1.1 2.4-2.4z"/></svg>