<svg id="Слой_1" xmlns="http://www.w3.org/2000/svg" viewBox="-495.6 761.2 33.5 33.5"><style>.st0{fill:#ff6700}.st1{fill:none;stroke:#ff6700;stroke-miterlimit:10}</style><path class="st0" d="M-470.4 774.3c-.1-.1-.2-.2-.4-.1-.3.1-.6.2-1.1.2.4-.2.7-.4.9-.6.1-.1.1-.4 0-.5s-.3-.1-.4-.1c-.4.2-.8.3-1.3.3-.8-1.7-2.2-2.3-2.3-2.4-.9-.4-1.7-.5-2.4-.3-2 .4-2.9 2.8-2.6 4.7-.5 0-3.3-.3-6.8-2.3-.2-.1-.4 0-.5.1v.2c0 2.1 1.9 3.1 2.8 3.4h-.7c-.2 0-.4.1-.4.3 0 .1.1.2.1.3.6.4 1.1.6 1.7.7h-.4c-.2 0-.3.2-.3.4 0 .1.1.2.2.3.5.3 1.3.7 2.2.7h.1c-.1 0-.2.1-.3.1h-.1c-.2 0-.3.2-.3.4 0 .1.1.2.2.3.7.2 1.3.3 1.8.1.1 0 .2 0 .3-.1 0 .5-.3 2.3-3.3 3-.2 0-.6.1-1.1.1h-.6c-.2 0-.3.1-.4.3 0 .2 0 .3.2.4 1.2.5 2.4.8 3.8.9.7 0 1.5-.1 2.1-.2 1.3-.3 2.5-.8 3.7-1.6h.1c1.7-1.2 2.9-2.8 3.7-4.8.3-1 .4-2 .3-2.8.6-.2 1.1-.5 1.4-.8.1-.2.2-.4.1-.6z"/><path class="st1" d="M-470.7 794.2H-487c-4.5 0-8.1-3.6-8.1-8.1v-16.3c0-4.5 3.6-8.1 8.1-8.1h16.3c4.5 0 8.1 3.6 8.1 8.1v16.3c0 4.4-3.7 8.1-8.1 8.1z"/></svg>