<svg id="Слой_1" xmlns="http://www.w3.org/2000/svg" viewBox="0 0 33.5 33.5"><style>.st0{fill:none;stroke:#ff6700;stroke-miterlimit:10}.st1{fill:#ff6700}</style><path class="st0" d="M24.9 33H8.6C4.1 33 .5 29.4.5 24.9V8.6C.5 4.1 4.1.5 8.6.5h16.3C29.4.5 33 4.1 33 8.6v16.3c0 4.4-3.7 8.1-8.1 8.1z"/><path class="st1" d="M25.1 18.3c.2-.5 1.1-1.8 1.8-2.8 2-2.9 2.3-3.6 2.3-3.9 0-.3-.2-.5-.5-.5H24c-.2 0-.5.2-.5.4-.3 1.4-3.6 5.5-4.1 5.8-.2 0-.5-.5-.5-1.6v-4.4c.1-.3 0-.7-.2-1-.4-.3-1-.3-2.4-.3-2.7 0-3.6.8-3.6 1.6 0 .3.2.5.4.5 0 0 .6.4.6 2.6 0 .9 0 1.7-.1 2.6-1.3-.2-3.1-3.5-4-5.9-.1-.3-.4-.4-.6-.4H4.9c-.3 0-.5.2-.5.5v.1c.6 3.1 7.1 12.8 11.4 12.8h2.1c1.1 0 1.2-1.2 1.2-2 .1-.8.1-1.1.3-1.1.6 0 2 1.1 2.8 1.9.9.7 1.4 1.2 1.8 1.2h2.6c1.3 0 2.6 0 2.6-1 0-.4-.3-.8-2.3-3.1-.7-.7-1.5-1.7-1.8-2z"/></svg>